<?xml version="1.0" encoding="utf-8"?>
<!-- Generator: Adobe Illustrator 27.5.0, SVG Export Plug-In . SVG Version: 6.00 Build 0)  -->
<svg version="1.1" id="Layer_1" xmlns="http://www.w3.org/2000/svg" xmlns:xlink="http://www.w3.org/1999/xlink" x="0px" y="0px"
	 viewBox="0 0 1024 1024" style="enable-background:new 0 0 1024 1024;" xml:space="preserve">
<style type="text/css">
	.st0{fill:#014974;}
	.st1{fill:#012D50;}
	.st2{fill:#6DC48D;}
	.st3{fill:#012D4F;}
	.st4{fill:#112238;}
	.st5{fill:#082848;}
	.st6{fill:#010C20;}
	.st7{fill:#142034;}
	.st8{fill:#002D4F;}
	.st9{fill:#0A1D34;}
	.st10{fill:#000C23;}
	.st11{fill:#182B3F;}
	.st12{fill:#162338;}
	.st13{fill:#14243C;}
	.st14{fill:#142137;}
	.st15{fill:#0E1E36;}
	.st16{fill:#0D1F37;}
	.st17{fill:#0B1528;}
	.st18{fill:#071328;}
	.st19{fill:#000E24;}
	.st20{fill:#101D31;}
	.st21{fill:#102135;}
	.st22{fill:#17263A;}
	.st23{fill:#15263B;}
	.st24{fill:#062F2D;}
	.st25{fill:#101E35;}
	.st26{fill:#0B172A;}
	.st27{fill:#1D2A3E;}
	.st28{fill:#162439;}
	.st29{fill:#0E1E33;}
	.st30{fill:#000B1F;}
	.st31{fill:#17253A;}
	.st32{fill:#010B22;}
	.st33{fill:#132338;}
	.st34{fill:#132035;}
	.st35{fill:#0C1A2E;}
	.st36{fill:#FFFFFF;}
</style>
<g>
	<path class="st0" d="M371.44,489.73c-0.22,0.09-0.41,0.2-0.56,0.33c-0.06,0.05-0.1,0.1-0.15,0.15c-0.06,0.06-0.11,0.13-0.15,0.21
		l0.87-0.68L371.44,489.73z"/>
</g>
<g>
	<path class="st1" d="M366.77,483.2c-19.1-17.24-38.06-34.64-57.04-52.01c-8.08-7.54-16.41-14.81-24.4-22.44
		c-1.81-1.46-3.7-3.8-6.3-3.16c-4.73,3.33-8.66,7.65-12.91,11.56c-23,21.33-45.87,42.8-69.02,63.98c-2.2,1.92-4.27,3.98-6.35,6.03
		c0.46,0.37,1.38,1.11,1.84,1.48c0.41,30.44,0.02,60.9,0.1,91.36c0.64,12.8,10.81,25.34,24.2,25.65
		c42.72,0.07,85.44-0.02,128.16,0.02c7.23,0.27,14.26-3.25,18.7-8.89c4.45-3.95,6.5-9.91,6.59-15.74c0-29.91-0.05-59.82,0.03-89.72
		v-0.11c0-0.09,0.01-0.17,0.02-0.25c0.01-0.08,0.03-0.16,0.05-0.23c0.01-0.05,0.03-0.09,0.05-0.14c0.02-0.05,0.05-0.11,0.08-0.16
		l0.01-0.01c0.04-0.08,0.09-0.15,0.15-0.21c0.05-0.05,0.09-0.1,0.15-0.15c0.15-0.13,0.34-0.24,0.56-0.33l0.01,0.01l1.43-1.12
		C370.71,486.99,368.8,484.98,366.77,483.2z M283.66,470.87h18.52v18.52h-18.52V470.87z M283.66,495.19h18.52v18.52h-18.52V495.19z
		 M259.84,470.87h18.52v18.52h-18.52V470.87z M259.84,495.19h18.52v18.52h-18.52V495.19z M356.51,519.53
		c-1.24,3.64-3.83,6.4-6.55,9.02c-1.11,1.06-2.23,2.11-3.3,3.18c-19.26,19.77-39.1,38.97-58.34,58.73
		c-0.03,0.02-0.06,0.05-0.09,0.09c-0.96,0.96-1.89,1.93-2.83,2.89c-4.2,4.75-12.32,5.39-17.11,1.23c-0.17-0.14-0.33-0.29-0.49-0.45
		c-12.81-12.84-25.79-25.52-38.67-38.31c-0.66-0.65-1.35-1.29-2.05-1.95c-3.51-3.32-7.13-6.92-7.25-12
		c-0.62-6.55,4.54-12.5,10.78-13.85c1.12-0.06,2.25-0.07,3.37-0.04c3.95,0.63,7.05,3.05,9.84,5.74l0.07,0.07
		c0.44,0.39,0.87,0.79,1.3,1.2c0.56,0.53,1.1,1.07,1.64,1.6c1.22,1.21,2.44,2.41,3.66,3.62c0.9,0.89,1.81,1.79,2.71,2.68
		c0.95,0.94,1.9,1.88,2.85,2.82l0.01,0.02c0.81,0.79,1.61,1.59,2.42,2.38c4.53,4.48,9.05,8.96,13.58,13.43
		c1.17,1.12,2.36,2.22,3.55,3.32c2.49-2.51,4.98-5.01,7.47-7.52c11.99-12.06,23.97-24.12,35.96-36.18l0.03-0.03
		c2.74-2.75,5.48-5.51,8.22-8.26c0.29-0.3,0.59-0.59,0.88-0.89l0.01-0.01c1.3-1.31,2.66-2.65,4.08-3.89
		c2.73-2.91,5.75-5.49,9.93-5.75c2.1-0.32,4.12-0.02,5.97,0.74c3.9,1.61,7,5.25,8.22,9.37c0,0.01,0,0.01,0,0.01
		C357.06,514.82,357.16,517.24,356.51,519.53z"/>
	<path class="st0" d="M419.08,413.01c0.07-6.69,0.18-13.39-0.16-20.08c0.02-2.64-2.5-4.28-4.57-5.38
		c-8.69-4.17-17.93-7.05-26.68-11.08c-10.05-3.9-19.83-8.48-30.01-12.06c-11.12-4.7-22.18-9.6-33.57-13.6
		c-10.33-4.81-21.01-8.81-31.49-13.28c-3.9-1.55-7.92-3.5-12.24-3.11c-2.77,0.23-5.49,0.92-8.06,1.98
		c-8.24,3.4-16.63,6.46-24.75,10.16c-18.72,6.92-36.86,15.36-55.58,22.3c-11.37,5.21-23.36,8.98-34.69,14.31
		c-4.32,1.8-8.83,3.14-13.03,5.19c-1.46,0.53-1.66,2.24-1.54,3.58c-0.07,42.02-0.05,84.05,0.06,126.08
		c-0.13,7.14,1.52,14.14,1.84,21.26c2.95,12.67,6.54,25.26,11.82,37.18c8.72,19.06,22.06,35.64,37.02,50.18
		c25.08,22.61,54.17,40.74,85.57,53.19c4.77,0.06,8.93-2.89,13.23-4.62c4.96-2.4,10.24-4.09,15-6.89
		c7.04-3.98,14.27-7.64,21.03-12.1c9.12-5.74,18.37-11.37,26.57-18.4c6.77-5.16,13.26-10.72,18.95-17.06
		c8.87-8.29,16.49-17.83,23.02-28.04c6.76-11.17,12.86-22.9,16.05-35.64c3.34-9.39,4.62-19.32,5.78-29.16
		c0.56-19.97,0.58-39.94,0.23-59.92C419.37,449.67,419.07,431.34,419.08,413.01z M387.27,484c-0.65,5-6.29,8.13-10.97,6.7
		c-1.23-0.55-2.36-1.27-3.42-2.08l-1.43,1.12l-0.87,0.68l-0.01,0.01c-0.03,0.05-0.06,0.11-0.08,0.16c-0.02,0.05-0.04,0.09-0.05,0.14
		c-0.02,0.07-0.04,0.15-0.05,0.23c-0.01,0.08-0.02,0.16-0.02,0.25v0.11c-0.08,29.9-0.03,59.81-0.03,89.72
		c-0.09,5.83-2.14,11.79-6.59,15.74c-4.44,5.64-11.47,9.16-18.7,8.89c-42.72-0.04-85.44,0.05-128.16-0.02
		c-13.39-0.31-23.56-12.85-24.2-25.65c-0.08-30.46,0.31-60.92-0.1-91.36c-0.46-0.37-1.38-1.11-1.84-1.48
		c-3.42,3.71-9.41,5.33-13.49,1.66c-2-2.07-3.71-4.87-3.24-7.87c0.58-3.86,3.68-6.64,6.62-8.89c15.85-14.83,31.91-29.43,47.81-44.2
		c14.48-13.01,28.47-26.53,43.13-39.33c3.21-2.96,7.88-4.66,12.15-3.09c5.33,2.66,9.48,7.05,13.87,10.97
		c9.1,8.18,18.06,16.52,27.21,24.63c1.52,1.51,3.08,2.98,4.7,4.41c0.09-5.83-0.2-11.66,0.09-17.48c0.08-2.66,2.58-4.97,5.23-4.94
		c4.7-0.17,9.4,0.05,14.1-0.05c2.27,0.09,5.03-0.36,6.73,1.54c1.79,1.64,1.97,4.25,1.98,6.53c0.01,13.33-0.1,26.68,0.09,40.01
		c0.25,0.3,0.74,0.9,0.99,1.2c8.21,7.3,16.45,14.58,24.47,22.09C385.83,476.8,388.26,480.18,387.27,484z"/>
</g>
<g>
	<path class="st2" d="M356.51,519.53c-1.24,3.64-3.83,6.4-6.55,9.02c-1.11,1.06-2.23,2.11-3.3,3.18
		c-19.26,19.77-39.1,38.97-58.34,58.73c-0.03,0.02-0.06,0.05-0.09,0.09c-0.96,0.96-1.89,1.93-2.83,2.89
		c-4.2,4.75-12.32,5.39-17.11,1.23c-0.17-0.14-0.33-0.29-0.49-0.45c-12.81-12.84-25.79-25.52-38.67-38.31
		c-0.66-0.65-1.35-1.29-2.05-1.95c-3.51-3.32-7.13-6.92-7.25-12c-0.62-6.55,4.54-12.5,10.78-13.85c1.12-0.06,2.25-0.07,3.37-0.04
		c3.95,0.63,7.05,3.05,9.84,5.74l0.07,0.07c0.44,0.39,0.87,0.79,1.3,1.2c0.56,0.53,1.1,1.07,1.64,1.6c1.22,1.21,2.44,2.41,3.66,3.62
		c0.9,0.89,1.81,1.79,2.71,2.68c0.95,0.94,1.9,1.88,2.85,2.82l0.01,0.02c0.81,0.79,1.61,1.59,2.42,2.38
		c4.53,4.48,9.05,8.96,13.58,13.43c1.17,1.12,2.36,2.22,3.55,3.32c2.49-2.51,4.98-5.01,7.47-7.52
		c11.99-12.06,23.97-24.12,35.96-36.18l0.03-0.03c2.74-2.75,5.48-5.51,8.22-8.26c0.29-0.3,0.59-0.59,0.88-0.89l0.01-0.01
		c1.3-1.31,2.66-2.65,4.08-3.89c2.73-2.91,5.75-5.49,9.93-5.75c2.1-0.32,4.12-0.02,5.97,0.74c3.9,1.61,7,5.25,8.22,9.37
		c0,0.01,0,0.01,0,0.01C357.06,514.82,357.16,517.24,356.51,519.53z"/>
</g>
<g>
	<path class="st1" d="M259.84,470.87v18.52h18.52v-18.52H259.84z M259.84,495.19v18.52h18.52v-18.52H259.84z M283.66,470.87v18.52
		h18.52v-18.52H283.66z M283.66,495.19v18.52h18.52v-18.52H283.66z"/>
</g>
<g>
	<path class="st1" d="M437.91,394.02c0.19-5.64-1.83-11.19-5.04-15.78c-2.41-3.42-6.3-5.37-10.06-6.96
		c-20.63-8.26-41.23-16.64-61.89-24.84c-23.38-9.4-46.65-19.07-70.12-28.25c-5.85-2.41-12.27-2.36-18.37-1.03
		c-34.83,13.77-69.47,28.06-104.22,42.05c-11.1,4.44-22.16,8.95-33.24,13.45c-6.79,3.87-11.14,11.54-10.99,19.35
		c0.04,44.68,0.01,89.35,0.02,134.02c0.68,16.71,4.42,33.26,10.7,48.74c4.39,10.9,9.98,21.29,16.48,31.07
		c0.71,1.12,1.45,2.22,2.21,3.32c12.33,17.63,27.66,33.04,44.63,46.21c20.59,16.34,43.84,28.95,67.64,39.93
		c3.74,1.65,7.51,3.26,11.31,4.79c1.5,0.53,3.12,1.32,4.74,0.71c3.95-1.17,7.64-3.06,11.42-4.67
		c27.62-12.34,54.42-27.08,77.74-46.49c16.92-13.7,31.88-29.98,43.2-48.63c14.92-24.57,23.99-53.1,23.74-81.98
		C437.98,477.36,437.82,435.69,437.91,394.02z M418.65,527.92c-1.16,9.84-2.44,19.77-5.78,29.16c-3.19,12.74-9.29,24.47-16.05,35.64
		c-6.53,10.21-14.15,19.75-23.02,28.04c-5.69,6.34-12.18,11.9-18.95,17.06c-8.2,7.03-17.45,12.66-26.57,18.4
		c-6.76,4.46-13.99,8.12-21.03,12.1c-4.76,2.8-10.04,4.49-15,6.89c-4.3,1.73-8.46,4.68-13.23,4.62
		c-31.4-12.45-60.49-30.58-85.57-53.19c-14.96-14.54-28.3-31.12-37.02-50.18c-5.28-11.92-8.87-24.51-11.82-37.18
		c-0.32-7.12-1.97-14.12-1.84-21.26c-0.11-42.03-0.13-84.06-0.06-126.08c-0.12-1.34,0.08-3.05,1.54-3.58
		c4.2-2.05,8.71-3.39,13.03-5.19c11.33-5.33,23.32-9.1,34.69-14.31c18.72-6.94,36.86-15.38,55.58-22.3
		c8.12-3.7,16.51-6.76,24.75-10.16c2.57-1.06,5.29-1.75,8.06-1.98c4.32-0.39,8.34,1.56,12.24,3.11
		c10.48,4.47,21.16,8.47,31.49,13.28c11.39,4,22.45,8.9,33.57,13.6c10.18,3.58,19.96,8.16,30.01,12.06
		c8.75,4.03,17.99,6.91,26.68,11.08c2.07,1.1,4.59,2.74,4.57,5.38c0.34,6.69,0.23,13.39,0.16,20.08
		c-0.01,18.33,0.29,36.66-0.2,54.99C419.23,487.98,419.21,507.95,418.65,527.92z"/>
</g>
<g>
	<path class="st3" d="M895.9,404.17l0.14-1.41c-7.42-0.05-14.83,0.2-22.24-0.07c0.01,37.81,0.29,75.63-0.13,113.44
		c7.45-0.15,14.89,0.01,22.34-0.08l-0.11-1.33C895.84,477.87,895.89,441.02,895.9,404.17z"/>
	<path class="st3" d="M647.41,516.28c7.24-0.34,14.5-0.2,21.75-0.09c-0.02-0.52-0.07-1.57-0.09-2.09
		c-0.15-14.37-0.04-28.74-0.06-43.11c-0.06-3.25,0.75-6.44,2.08-9.38c4.49-9.03,18.12-9.06,24.27-1.83
		c1.74,3.49,2.78,7.3,2.64,11.23c-0.07,15.05,0.16,30.11-0.13,45.16c7.33-0.18,14.67,0,22.01-0.14
		c-0.41-14.68-0.05-29.39-0.12-44.08c0.29-8.81-0.73-18.3-6.28-25.51c-5.11-6.99-14.14-10.1-22.57-9.53
		c-6.92-0.47-13.89,2.25-18.57,7.37l-0.22-0.07c-0.88,1.4-1.53,3.11-3.03,3.97c-0.15-3.42-0.11-6.84,0.05-10.25
		c-7.33,0.16-14.65-0.01-21.97,0.1C647.47,464.11,647.08,490.2,647.41,516.28z"/>
	<path class="st3" d="M694.24,599.56c-7.16-6.38-16.87-8.6-26.08-10.13c-3.19-0.63-6.79-0.93-9.21-3.35
		c-2.15-2.29-1.56-6.25,0.99-7.98c3.32-2.75,7.9-2.23,11.9-1.92c4.18,0.64,7.26,4.01,8.51,7.91c6.51-1.66,13.01-3.36,19.58-4.77
		c-1.54-8.13-9-13.91-16.23-17.08c-7.57-2.77-15.88-2.8-23.75-1.59c-8.17,1.29-16.25,5.72-20.34,13.13
		c-3.15,5.51-3.25,12.3-1.44,18.27c0.88,1.67,1.73,3.38,2.87,4.9c6.96,7.51,17.5,9.51,26.99,11.96c3.7,0.77,7.41,1.81,10.66,3.83
		c0.13,0.08,0.39,0.23,0.52,0.31c3.14,3.64,1.56,9.55-2.9,11.24c-5.58,2.22-12.91,2.3-17.52-2.04c-2.35-2.23-3.47-5.36-4.16-8.44
		c-6.88,1.39-13.68,3.1-20.55,4.49c0.17,0.48,0.53,1.44,0.7,1.92c1.4,4.53,3.77,8.84,7.23,12.12c7.26,6.58,17.44,8.96,27.02,8.7
		c6.19,0.19,12.39-1.32,17.88-4.14c5.09-2.69,9.48-6.86,11.98-12.09C702.52,616.51,701.17,605.76,694.24,599.56z"/>
	<path class="st3" d="M617.84,491.74c-5.29,12.25-26.15,11.92-30.89-0.65c-0.83-2.56-2.43-5.51-1.43-8.17
		c17.18,0.73,34.42-0.11,51.61,0.39c0.27-4.06,0.36-8.14,0.11-12.2c-0.28-11.51-5.87-23.25-15.83-29.44
		c-8.9-5.9-20.27-6.17-30.42-4.13c-9.45,2.21-17.7,8.61-22.33,17.12c-5.49,10.32-6.43,22.57-4.42,33.96
		c1.68,8.81,6.08,17.61,13.73,22.67c0.66,0.51,1.33,1.04,2.02,1.54c8.71,5,19.13,6.33,28.99,5.16c5.55-0.75,11.22-2.44,15.66-5.96
		l0.54-0.02c4.28-3.11,8.63-6.74,10.94-11.58C629.92,497.77,623.75,494.99,617.84,491.74z M585.11,468.69
		c-0.34-4.68,1.94-9.08,5-12.47c6.03-5.6,16.7-5.94,22.27,0.48c2.48,3.42,4.26,7.82,3.33,12.09c-9.95-0.39-19.93-0.13-29.89-0.11
		L585.11,468.69z"/>
	<path class="st3" d="M857.42,474.02c-0.03-7.6,0.44-15.61-2.95-22.65c-3.94-8.21-12.66-13.31-21.5-14.42
		c-9.71-1.32-20.33-0.95-28.83,4.45c-6.81,4.58-10.46,12.21-13.24,19.67c6.03,1.58,12.48,1.33,18.61,2.59
		c1.57-3.52,3.64-7.25,7.38-8.82c4.63-1.9,10.15-2.01,14.6,0.45c2.93,1.81,4.61,5.18,4.71,8.58c0.05,1.87,0.1,3.74,0.17,5.63
		c-6.83,0.18-13.71-0.32-20.51,0.41c-8.73,0.76-18.9,2.82-24.1,10.63c-0.06,0.13-0.18,0.4-0.24,0.54
		c-4.65,6.5-4.13,15.21-2.36,22.63c3.51,8.84,12.68,14.22,21.97,14.67c9.27,1.35,19.87-1.8,24.8-10.23c0.3,0.09,0.88,0.29,1.17,0.39
		c-0.24,2.54-0.29,5.11-0.39,7.67c6.93-0.24,13.86-0.08,20.79-0.08C857.28,502.09,857.48,488.06,857.42,474.02z M836.88,483.16
		c0.01,0.43,0.03,1.31,0.04,1.74c-0.16,5.43-1.45,11.81-6.55,14.76c-3.9,2.71-8.84,2.72-13.38,2.3c-4.71-0.56-8.89-5.23-7.8-10.09
		c0.58-4.31,4.5-7.41,8.65-8.04c6.06-1.08,12.27-0.3,18.4-0.66L836.88,483.16z"/>
	<path class="st3" d="M726.11,455.98c3.54-0.21,7.1,0.01,10.65-0.32l0.65,0.73c0.13,11.24-0.16,22.48,0.19,33.71
		c0.09,6.66,1.07,13.82,5.4,19.16c3.54,4.73,9.11,7.59,14.88,8.53c7.38,0.85,14.87,0.15,22.01-1.89c0.23-5.94,0.1-11.9,0.11-17.85
		c-4.65,0.9-9.46,1.52-14.17,0.81c-4.05-0.77-7.06-4.73-6.82-8.83c-0.03-11.38,0-22.77-0.04-34.15c6.94,0.07,13.89-0.01,20.84,0.03
		c0.1-5.96-0.05-11.91,0.04-17.86c-7.02-0.17-14.04,0.08-21.06-0.15c0.36-7.24,0.15-14.49,0.13-21.73
		c-7.15,0.4-14.44-0.22-21.49,0.28c-0.1,6.91-0.11,13.83,0.03,20.75c-0.17,0.24-0.5,0.71-0.67,0.94c-3.62-0.27-7.24-0.1-10.86-0.19
		C726.24,443.96,725.93,449.97,726.11,455.98z"/>
	<path class="st3" d="M552.07,499.46c-5.23-8.35-10.39-16.74-16-24.82c9.03-4.1,16.59-11.81,19.32-21.48
		c4.43-14.16,0.33-31.32-12.17-40.08c-3.72-2.7-7.95-4.58-12.34-5.88c-7.8-2.04-15.93-1.52-23.91-1.57
		c-9.32-0.05-18.65,0.1-27.97-0.11c0,27.82,0,55.64,0,83.46c-0.17,8.97,0.35,17.98-0.29,26.93c7.65,0.33,15.31-0.03,22.96,0.25
		l0.29-0.54c-0.52-12.67-0.09-25.36-0.33-38.04c3.91,0.11,7.83,0.16,11.75-0.07c3.58,5.85,6.92,11.84,10.36,17.77
		c1.04,1.74,2.12,3.46,3.2,5.19c0.07,0.13,0.21,0.37,0.28,0.49c2.68,5.18,5.83,10.08,8.77,15.11c8.8,0.05,17.59-0.16,26.38,0.05
		C559.55,510.21,555.46,505.03,552.07,499.46z M502.56,457.9c-0.3-0.02-0.89-0.05-1.19-0.06l0.02-0.69
		c0.15-9.94,0.18-19.9-0.01-29.84l-0.06-1.18c0.39-0.01,1.18-0.04,1.57-0.05c9.73,0.46,21.96-2.71,29.07,5.95
		c3.47,7.28,3.56,17.72-3.66,22.8C520.57,459.5,511.12,457.65,502.56,457.9z"/>
	<path class="st3" d="M545.94,618c-14.64,0.05-29.28-0.1-43.92,0.08c-0.23-0.16-0.71-0.48-0.95-0.64c0.42-7.3,0.15-14.62,0.15-21.92
		c0.09-0.14,0.27-0.42,0.36-0.56c13.24,0.1,26.47-0.02,39.71,0.06l1.04,0.01c0.62-6.5,0.23-13.03,0.26-19.54
		c-12.96-0.45-25.94-0.12-38.91-0.18c-0.57,0.07-1.71,0.21-2.28,0.28c-0.3-7.82-0.05-15.64-0.14-23.46
		c15.22,0.21,30.47,0.37,45.69-0.06c0.26-6.73,0.41-13.47,0.23-20.2c-22.69,0.09-45.39,0.24-68.08-0.07
		c-0.17,35.8-0.15,71.62-0.01,107.42c18.62-0.38,37.25-0.06,55.88-0.16c4.56-0.12,9.15,0.3,13.7-0.3
		c0.29-6.89,0.22-13.77,0.01-20.66C547.99,618.08,546.63,618.02,545.94,618z"/>
	<path class="st3" d="M626.66,594c-0.12-4.65-0.22-9.35-1.25-13.91c-1.69-7.27-6.79-13.61-13.5-16.85
		c-5.84-2.95-12.48-3.55-18.92-3.29c-8.27-0.4-16.94,1.98-23.01,7.8c-4.57,4.18-7.17,9.93-9.26,15.64
		c-0.15,0.38-0.45,1.14-0.61,1.51c6.21,0.37,12.36,1.99,18.56,1.94c1.93-3.56,4.09-7.51,8.22-8.86c5.46-1.97,13.04-1.49,16.42,3.89
		c2.45,3.12,1.61,7.32,2.21,10.99l-0.5,0.31c-11.3-0.13-23.06-1.34-33.81,2.96c-6.76,2.25-12.37,8.15-13.49,15.3
		c-1.85,8.17-0.2,17.83,6.46,23.45c6.2,5.53,14.94,6.75,22.95,6.26c7.66-0.02,14.61-4.71,18.83-10.9c0.02,2.98,0.02,5.96,0,8.94
		c6.92-0.33,13.84-0.09,20.77-0.1C626.55,624.05,626.68,609.02,626.66,594z M606,606.06c-0.08,5.56-0.82,11.83-5.27,15.72
		c-4.35,4.09-10.75,3.56-16.24,3.09c-4.21-1.74-7.09-6.23-5.95-10.82c0.62-2.94,2.92-5.27,5.67-6.33
		c6.71-2.24,13.87-1.36,20.81-1.66H606z"/>
	<path class="st3" d="M765.23,564.77c-7.99-5.12-17.95-5.58-27.09-4.34c-7.71,1.2-15.04,4.94-20.22,10.8
		c-1.93,2.32-3.71,4.77-5.19,7.4c-5.11,9.9-5.73,21.43-4.16,32.28c1.54,8.75,5.74,17.34,12.93,22.79c7.58,5.56,17.18,7.88,26.5,7.35
		c13.09,0.31,25.5-7.19,32.3-18.22c-5.99-2.64-12.03-5.17-17.95-7.96c-5.63,11.15-24.16,11.94-30.14,0.75
		c-1.57-2.83-2.12-6.03-2.94-9.11c0.28-0.13,0.85-0.41,1.13-0.55c15.88,0.12,31.77-0.04,47.65,0.08c0.75,0.03,2.26,0.07,3.01,0.09
		c0.18-7.2,0.42-14.48-1.22-21.55C777.14,576.71,772.56,569.08,765.23,564.77z M739.34,576.55c3.93-1.72,8.31-1.35,12.34-0.19
		c1.79,0.85,3.37,2.1,4.78,3.5c2.58,3.44,3.85,7.68,3.61,11.98c-10.39-0.09-20.79-0.09-31.18-0.01
		C729.63,585.47,733.19,579.03,739.34,576.55z"/>
</g>
<g>
	<path class="st4" d="M1684.67,618.35c6.1-1.33,12.52-1.38,18.37,1.03c23.47,9.18,46.74,18.85,70.12,28.25
		c-1.37,0.96-2.95,0.84-4.35,0.12c-5.94-2.59-12.2-4.36-18.05-7.14c-7.77-3.81-16.1-6.25-23.99-9.79
		c-5.53-2.26-11.14-4.31-16.63-6.66c-5.41-2.26-10.9-5.01-16.92-4.76c-6.9-0.31-13.31,2.6-19.52,5.21
		c-7.95,3.51-16.27,6.11-24.07,9.97c-9.86,3.15-19.07,7.93-28.85,11.32c-13.49,5.94-27.23,11.26-40.92,16.72
		c-9.1,4.13-18.62,7.24-27.72,11.37c-5.61,1.8-10.65,5.96-12.69,11.59c-1.72,4.31-1.36,9.06-1.4,13.61
		c0.09,35.69-0.03,71.38,0.03,107.07c0.1,13-0.71,26.18,1.98,38.99c2.86,17.13,9.32,33.48,17.42,48.79c2,3.91,5.18,7.16,6.78,11.26
		c-0.21,0.43-0.63,1.3-0.84,1.73c-6.5-9.78-12.09-20.17-16.48-31.07c-6.28-15.48-10.02-32.03-10.7-48.74
		c-0.01-44.67,0.02-89.34-0.02-134.02c-0.15-7.81,4.2-15.48,10.99-19.35c11.08-4.5,22.14-9.01,33.24-13.45
		C1615.2,646.41,1649.84,632.12,1684.67,618.35z"/>
</g>
<g>
	<g>
		<path class="st3" d="M1850.15,695.21c0.19-5.64-1.83-11.19-5.04-15.78c-2.41-3.42-6.3-5.37-10.06-6.96
			c-20.63-8.26-41.23-16.64-61.89-24.84c-1.37,0.96-2.95,0.84-4.35,0.12c-5.94-2.59-12.2-4.36-18.05-7.14
			c-7.77-3.81-16.1-6.25-23.99-9.79c-5.53-2.26-11.14-4.31-16.63-6.66c-5.41-2.26-10.9-5.01-16.92-4.76
			c-6.9-0.31-13.31,2.6-19.52,5.21c-7.95,3.51-16.27,6.11-24.07,9.97c-9.86,3.15-19.07,7.93-28.85,11.32
			c-13.49,5.94-27.23,11.26-40.92,16.72c-9.1,4.13-18.62,7.24-27.72,11.37c-5.61,1.8-10.65,5.96-12.69,11.59
			c-1.72,4.31-1.36,9.06-1.4,13.61c0.09,35.69-0.03,71.38,0.03,107.07c0.1,13-0.71,26.18,1.98,38.99
			c2.86,17.13,9.32,33.48,17.42,48.79c2,3.91,5.18,7.16,6.78,11.26c-0.21,0.43-0.63,1.3-0.84,1.73c0.71,1.12,1.45,2.22,2.21,3.32
			l0.65-1.49c3.18,2.35,4.73,6.13,7.3,9.03c4.06,4.57,7.51,9.67,11.97,13.89c6.94,6.76,13.4,14.13,21.4,19.7
			c1.79,1.31,3.78,2.57,4.7,4.7l-1.39,0.38c20.59,16.34,43.84,28.95,67.64,39.93c3.74,1.65,7.51,3.26,11.31,4.79
			c1.5,0.53,3.12,1.32,4.74,0.71c3.95-1.17,7.64-3.06,11.42-4.67c27.62-12.34,54.42-27.08,77.74-46.49
			c16.92-13.7,31.88-29.98,43.2-48.63c14.92-24.57,23.99-53.1,23.74-81.98C1850.22,778.55,1850.06,736.88,1850.15,695.21z
			 M1830.89,829.11c-1.16,9.84-2.44,19.77-5.78,29.16c-3.19,12.74-9.29,24.47-16.05,35.64c-6.53,10.21-14.15,19.75-23.02,28.04
			c-5.69,6.34-12.18,11.9-18.95,17.06c-8.2,7.03-17.45,12.66-26.57,18.4c-6.76,4.46-13.99,8.12-21.03,12.1
			c-4.76,2.8-10.04,4.49-15,6.89c-4.3,1.73-8.46,4.68-13.23,4.62c-31.4-12.45-60.49-30.58-85.57-53.19
			c-14.96-14.54-28.3-31.12-37.02-50.18c-5.28-11.92-8.87-24.51-11.82-37.18c-0.32-7.12-1.97-14.12-1.84-21.26
			c-0.11-42.03-0.13-84.06-0.06-126.08c-0.12-1.34,0.08-3.05,1.54-3.58c4.2-2.05,8.71-3.39,13.03-5.19
			c11.33-5.33,23.32-9.1,34.69-14.31c18.72-6.94,36.86-15.38,55.58-22.3c8.12-3.7,16.51-6.76,24.75-10.16
			c2.57-1.06,5.29-1.75,8.06-1.98c4.32-0.39,8.34,1.56,12.24,3.11c10.48,4.47,21.16,8.47,31.49,13.28c11.39,4,22.45,8.9,33.57,13.6
			c10.18,3.58,19.96,8.16,30.01,12.06c8.75,4.03,17.99,6.91,26.68,11.08c2.07,1.1,4.59,2.74,4.57,5.38
			c0.34,6.69,0.23,13.39,0.16,20.08c-0.01,18.33,0.29,36.66-0.2,54.99C1831.47,789.17,1831.45,809.14,1830.89,829.11z"/>
	</g>
	<path class="st3" d="M2287.48,705.47c6.88-0.28,13.77-0.02,20.66-0.11c-0.01,36.85-0.06,73.7,0,110.55
		c-6.23-0.05-12.47,0.27-18.68-0.12c-2.47,0.11-1.97-2.96-2.1-4.57C2287.67,775.97,2287.17,740.72,2287.48,705.47z"/>
	<path class="st3" d="M1633.7,733.42c2.4-1.53,3.5-5.53,6.99-4.37c-15.9,14.77-31.96,29.37-47.81,44.2
		c-2.94,2.25-6.04,5.03-6.62,8.89c-0.47,3,1.24,5.8,3.24,7.87c4.08,3.67,10.07,2.05,13.49-1.66c0.97,2.35-1.6,3.33-3.09,4.33
		c-3.42,2.52-8.14,1.44-11.46-0.68c-3.64-3.39-4.5-9.1-2.92-13.68c8.56-9.07,18.17-17.07,27.15-25.72
		c5.02-3.61,8.62-8.75,13.57-12.43C1628.85,738.05,1631.02,735.45,1633.7,733.42z"/>
	<path class="st3" d="M2059.41,739.22c7.32-0.11,14.64,0.06,21.97-0.1c-0.16,3.41-0.2,6.83-0.05,10.25c1.5-0.86,2.15-2.57,3.03-3.97
		l0.22,0.07c0.44,0.15,1.32,0.43,1.76,0.57c3.34-1.8,6.11-4.79,10.01-5.42c6.6-2.04,13.69-0.94,19.99,1.57
		c3.65,2.07,6.92,4.98,9.3,8.45c2.99,5.65,4.64,12.08,4.49,18.49c-0.06,15.57,0.02,31.14-0.03,46.7c-5.9-0.22-11.8,0.17-17.7-0.15
		c-0.62-10.15-0.08-20.32-0.29-30.48c-0.21-6.93,0.61-14.03-1.15-20.82c-0.3-1.79-1.88-2.69-3.36-3.41
		c-6.15-7.23-19.78-7.2-24.27,1.83c-1.33,2.94-2.14,6.13-2.08,9.38c0.02,14.37-0.09,28.74,0.06,43.11c0.02,0.52,0.07,1.57,0.09,2.09
		c-7.25-0.11-14.51-0.25-21.75,0.09C2059.32,791.39,2059.71,765.3,2059.41,739.22z"/>
	<g>
		<path class="st3" d="M2215.07,746c7.17-6.21,17.21-6.79,26.25-6.55c8.22,0.12,15.98,4.22,21.52,10.15
			c4.08,5.62,5.36,12.79,5.13,19.61c-0.07,15.54,0.21,31.08-0.16,46.62c-5.64,0-11.28,0.19-16.91-0.22
			c-0.25-2.01,0.32-4.5-1.56-5.88c-0.29-0.1-0.87-0.3-1.17-0.39l-1.67-0.41c-4.61,5.72-11.82,9.37-19.22,9.07
			c-7.97-0.21-16.65-2.62-21.68-9.22c-3.72-4.71-3.52-11.03-3.39-16.7c-0.06-3.38,2.55-6.4,1.55-9.81c0.06-0.14,0.18-0.41,0.24-0.54
			c3.69-0.64,5.99-3.92,9.39-5.2c5.04-2.1,10.35-3.77,15.85-3.99c6.16-0.24,12.33,0.22,18.49-0.23c-0.92-1.61-2.96-1.17-4.46-1.37
			c-5.06-0.1-10.11,0.29-15.17,0.16c6.8-0.73,13.68-0.23,20.51-0.41c-0.07-1.89-0.12-3.76-0.17-5.63c0.27,1.68,0.58,3.42,1.92,4.64
			c0.44-4.95-0.24-10.94-4.66-14c-4.55-3.76-11.18-3.51-16.47-1.67c-4.27,1.48-6.86,5.28-9.29,8.84c-4.59-0.82-9.24-1.19-13.84-1.91
			C2207.66,755.3,2210.71,749.96,2215.07,746z M2227.18,783.87c-6.77,1.37-8.77,10-6.56,15.68c2.65,5.31,9.36,6.39,14.69,5.62
			c4.14-0.82,8.71-1.85,11.37-5.45c3.91-3.72,4.01-9.44,4.37-14.46c-0.47,0.21-1.41,0.62-1.89,0.83c-0.01-0.43-0.03-1.31-0.04-1.74
			l-0.64,0.01c-0.1-0.41-0.3-1.23-0.39-1.64C2241.13,783.17,2234,782.12,2227.18,783.87z"/>
	</g>
	<path class="st3" d="M2072.19,861.84c7.87-1.21,16.18-1.18,23.75,1.59c7.23,3.17,14.69,8.95,16.23,17.08
		c-6.57,1.41-13.07,3.11-19.58,4.77c-1.25-3.9-4.33-7.27-8.51-7.91c-4-0.31-8.58-0.83-11.9,1.92c-2.55,1.73-3.14,5.69-0.99,7.98
		c2.42,2.42,6.02,2.72,9.21,3.35c9.21,1.53,18.92,3.75,26.08,10.13c6.93,6.2,8.28,16.95,4.65,25.25c-2.5,5.23-6.89,9.4-11.98,12.09
		c-1.75-1.66-3.75-0.24-5.57,0.37c-9.77,4.01-20.88,2.52-30.46-1.26c-3.05-1.09-5.34-4.45-8.87-3.67
		c-3.46-3.28-5.83-7.59-7.23-12.12c0.76,0.79,1.54,1.57,2.35,2.33c0.13-1.05,0.25-2.1,0.4-3.14c5.3-1.02,10.53-3.16,15.97-3.05
		c1.46,2.57,1.97,5.9,4.63,7.63c6.61,5.12,17.67,5,23.16-1.72c1.62-2.8,2.26-8.69-2.08-9.22c-0.13-0.08-0.39-0.23-0.52-0.31
		c-0.07-0.57-0.22-1.72-0.29-2.29c-4.4-2.83-9.89-2.55-14.68-4.36c-7.26-2.5-15.23-4.28-20.93-9.76c-0.44,0.16-1.31,0.47-1.75,0.62
		c-1.14-1.52-1.99-3.23-2.87-4.9c-1.81-5.97-1.71-12.76,1.44-18.27C2055.94,867.56,2064.02,863.13,2072.19,861.84z"/>
</g>
<g>
	<g>
		<path class="st0" d="M1831.32,714.2c0.07-6.69,0.18-13.39-0.16-20.08c0.02-2.64-2.5-4.28-4.57-5.38
			c-8.69-4.17-17.93-7.05-26.68-11.08c-10.05-3.9-19.83-8.48-30.01-12.06c-11.12-4.7-22.18-9.6-33.57-13.6
			c-10.33-4.81-21.01-8.81-31.49-13.28c-3.9-1.55-7.92-3.5-12.24-3.11c-2.77,0.23-5.49,0.92-8.06,1.98
			c-8.24,3.4-16.63,6.46-24.75,10.16c-18.72,6.92-36.86,15.36-55.58,22.3c-11.37,5.21-23.36,8.98-34.69,14.31
			c-4.32,1.8-8.83,3.14-13.03,5.19c-1.46,0.53-1.66,2.24-1.54,3.58c-0.07,42.02-0.05,84.05,0.06,126.08
			c-0.13,7.14,1.52,14.14,1.84,21.26c2.95,12.67,6.54,25.26,11.82,37.18c8.72,19.06,22.06,35.64,37.02,50.18
			c25.08,22.61,54.17,40.74,85.57,53.19c4.77,0.06,8.93-2.89,13.23-4.62c4.96-2.4,10.24-4.09,15-6.89
			c7.04-3.98,14.27-7.64,21.03-12.1c9.12-5.74,18.37-11.37,26.57-18.4c6.77-5.16,13.26-10.72,18.95-17.06
			c8.87-8.29,16.49-17.83,23.02-28.04c6.76-11.17,12.86-22.9,16.05-35.64c3.34-9.39,4.62-19.32,5.78-29.16
			c0.56-19.97,0.58-39.94,0.23-59.92C1831.61,750.86,1831.31,732.53,1831.32,714.2z M1801.15,784.14
			c0.16,8.51-11.84,13.16-17.47,6.78c-0.75,0.3-1.11,0.83-1.07,1.59c-0.08,29.9-0.03,59.81-0.03,89.72
			c-0.09,5.83-2.14,11.79-6.59,15.74c-4.44,5.64-11.47,9.16-18.7,8.89c-42.72-0.04-85.44,0.05-128.16-0.02
			c-13.39-0.31-23.56-12.85-24.2-25.65c-0.08-30.46,0.31-60.92-0.1-91.36c-0.46-0.37-1.38-1.11-1.84-1.48
			c0.97,2.35-1.6,3.33-3.09,4.33c-3.42,2.52-8.14,1.44-11.46-0.68c-3.64-3.39-4.5-9.1-2.92-13.68c8.56-9.07,18.17-17.07,27.15-25.72
			c5.02-3.61,8.62-8.75,13.57-12.43c2.61-2.12,4.78-4.72,7.46-6.75c2.4-1.53,3.5-5.53,6.99-4.37
			c14.48-13.01,28.47-26.53,43.13-39.33c3.21-2.96,7.88-4.66,12.15-3.09c5.33,2.66,9.48,7.05,13.87,10.97
			c9.1,8.18,18.06,16.52,27.21,24.63l-0.45-1.51c1.16,0.41,2.31,0.84,3.47,1.29c-0.02-4.93-0.43-9.93,0.46-14.8
			c0.57-3,3.84-4.77,6.71-4.65c5.86,0,11.72-0.04,17.57,0.17c3.31,0.07,6.6,2.98,6.37,6.43c0.2,11.01-0.05,22.03,0.2,33.04
			c0.14,3.89-0.71,7.96,1.12,11.59l-1.54-0.34c8.21,7.3,16.45,14.58,24.47,22.09C1799.67,774.98,1801.58,780.68,1801.15,784.14z"/>
	</g>
</g>
<g>
	<path class="st5" d="M1740.53,707.21c0.57-3,3.84-4.77,6.71-4.65c5.86,0,11.72-0.04,17.57,0.17c3.31,0.07,6.6,2.98,6.37,6.43
		c0.2,11.01-0.05,22.03,0.2,33.04c0.14,3.89-0.71,7.96,1.12,11.59l-1.54-0.34c-0.25-0.3-0.74-0.9-0.99-1.2
		c-0.19-13.33-0.08-26.68-0.09-40.01c-0.01-2.28-0.19-4.89-1.98-6.53c-1.7-1.9-4.46-1.45-6.73-1.54c-4.7,0.1-9.4-0.12-14.1,0.05
		c-2.65-0.03-5.15,2.28-5.23,4.94c-0.29,5.82,0,11.65-0.09,17.48c-1.62-1.43-3.18-2.9-4.7-4.41l-0.45-1.51
		c1.16,0.41,2.31,0.84,3.47,1.29C1740.05,717.08,1739.64,712.08,1740.53,707.21z"/>
</g>
<g>
	<path class="st6" d="M2286.04,703.88c7.41,0.27,14.82,0.02,22.24,0.07l-0.14,1.41c-6.89,0.09-13.78-0.17-20.66,0.11
		c-0.31,35.25,0.19,70.5-0.12,105.75c0.13,1.61-0.37,4.68,2.1,4.57c6.21,0.39,12.45,0.07,18.68,0.12l0.11,1.33
		c-7.45,0.09-14.89-0.07-22.34,0.08C2286.33,779.51,2286.05,741.69,2286.04,703.88z"/>
</g>
<g>
	<g>
		<path class="st1" d="M1892.59,708.55c12.88-0.07,25.75-0.05,38.62-0.04c7.83,0.01,15.77,1.94,22.05,6.78
			c0.55-0.25,1.65-0.76,2.2-1.02c12.5,8.76,16.6,25.92,12.17,40.08c-2.73,9.67-10.29,17.38-19.32,21.48
			c5.61,8.08,10.77,16.47,16,24.82c0.08,1.56-0.29,3.31,0.76,4.67c2.03,3.27,3.62,6.81,6.02,9.84c-6.9,0.1-13.86,0.62-20.73-0.03
			c-5.29-2.6-4.77-11.31-10.9-12.98c-0.07-0.12-0.21-0.36-0.28-0.49c-0.14-1.54,0.07-3.18-0.74-4.57
			c-3.08-6.12-6.73-11.93-10.33-17.75c-1.36-2.37-4.45-2.33-6.83-2.54c-3.09,0.02-6.9-0.14-9.1,2.41
			c-0.07,12.15,0.28,24.33-0.19,36.49c-6.47,0.34-12.94,0.02-19.4,0.13C1892.62,780.07,1892.64,744.31,1892.59,708.55z
			 M1914.13,725.2c0.25,0.51,0.75,1.55,1,2.07c-0.39,0.01-1.18,0.04-1.57,0.05l0.06,1.18l-1.2-0.52
			c-0.38,9.78,0.03,19.58-0.29,29.36c0.37,0.25,1.12,0.75,1.5,1l-0.02,0.69c0.3,0.01,0.89,0.04,1.19,0.06l0.41,1.3
			c8.31-0.25,17.45,1.84,25.06-2.44c0.07-0.48,0.2-1.45,0.27-1.93c7.22-5.08,7.13-15.52,3.66-22.8l1.42,0.35
			c-0.16-3.74-4.12-5.56-7.1-6.86C1930.6,724.5,1922.25,725.28,1914.13,725.2z"/>
	</g>
	<g>
		<path class="st1" d="M1994.37,744.35c7.03-4.66,15.79-5.17,23.97-4.85c8.93,0.74,17.69,5.33,22.68,12.9
			c6.3,8.38,7.62,19.39,6.69,29.56c-0.2,0.2-0.6,0.59-0.8,0.79c-14.88,0.23-29.8,0.07-44.69,0.06c-1.6-0.04-3.21,0.23-4.46,1.3
			c-1,2.66,0.6,5.61,1.43,8.17c4.74,12.57,25.6,12.9,30.89,0.65c5.91,3.25,12.08,6.03,18.28,8.69c-2.31,4.84-6.66,8.47-10.94,11.58
			l-0.54,0.02c-3.6-0.36-6.69,1.69-9.97,2.75c-9.25,3.19-19.5,2.32-28.51-1.23c-2.02-0.57-4.17-2.28-6.17-0.72
			c-0.69-0.5-1.36-1.03-2.02-1.54l1.51-0.14c-3.56-4.6-8.28-8.41-10.68-13.84c-3.95-10.2-4.69-21.57-2.32-32.23
			C1981.1,757.46,1986.29,748.98,1994.37,744.35z M2000.75,757.62l1.6-0.21c-3.06,3.39-5.34,7.79-5,12.47l0.71-0.01
			c0.26,0.38,0.79,1.15,1.05,1.53c9.76-0.47,19.57,0.31,29.32-0.53l-0.48-0.89c0.93-4.27-0.85-8.67-3.33-12.09
			c1.88-1.51-0.23-2.92-1.29-3.81c-3.18-2.18-7.26-2.76-11.02-2.82C2007.99,752.01,2002.46,752.93,2000.75,757.62z"/>
	</g>
	<path class="st1" d="M1892.57,834.47c21.71,0.19,43.43-0.21,65.13,0.25c0.34,5.69,0.96,11.55-0.59,17.12
		c-11.3,0.2-22.61-0.02-33.91,0.07c-3.78,0.07-7.7-0.51-11.31,0.9c0.18,7.8-0.24,15.63,0.34,23.42c-0.19,1.76,1.76,1.83,2.99,1.91
		c12.57,0.31,25.15-0.03,37.71,0.26c-0.04,5.12,0.6,10.29-0.16,15.38c-2.82,1.77-6.36,0.86-9.49,1.07
		c-9.42-0.31-18.88,0.57-28.25-0.48c-0.3,0.44-0.91,1.33-1.21,1.78c-0.09,0.14-0.27,0.42-0.36,0.56c-0.28,0.43-0.84,1.29-1.12,1.72
		c-0.37,4.58-0.08,9.17-0.24,13.76c0.08,2.17-0.36,4.66,1.21,6.44c0.24,0.16,0.72,0.48,0.95,0.64c1.65,1.51,3.93,1.3,5.99,1.36
		c11.33-0.1,22.66-0.03,34-0.12c1.5,0.15,3.34-0.26,4.57,0.88c1.07,5.59,0.51,11.33,0.3,16.99c-3.9,0.8-7.88,0.44-11.82,0.48
		c-18.24,0.05-36.47-0.03-54.7,0.01C1892.57,904.07,1892.59,869.27,1892.57,834.47z"/>
	<g>
		<path class="st1" d="M1998.2,863.17c9.41-2.15,19.39-0.21,27.79,4.37c4.41,2.17,6.69,6.77,9.21,10.73
			c1.93,4.68,1.77,9.93,1.9,14.91c-0.25,14.35,0.06,28.7-0.17,43.04c0,1.07-0.28,2.9-1.77,2.69c-5.14,0.06-10.42,0.71-15.47-0.54
			c0.39-2.76,0.32-5.57-0.78-8.16c-1.37,0.35-2.64,1-3.54,2.11c-3.72,4.02-8.45,7.51-13.99,8.34c-9.1,1.11-19.3-0.85-25.71-7.85
			c-5.14-5.61-5.22-13.85-3.82-20.9c0.61-4.28,3.66-7.66,6.9-10.25c10.69-6.15,23.39-6.14,35.36-6.08c1.22,0.18,2.16-0.65,3.15-1.22
			l0.5-0.31c2.01-1.26,1.57-3.82,1.24-5.79c-0.57-2.97-0.9-6.39-3.46-8.38c-3.84-3.58-9.56-2.78-14.36-2.75
			c-5.32,0.15-9.14,4.3-11.41,8.72c-4.89,0.32-9.74-0.44-14.53-1.33C1977.62,873.54,1987.25,865.03,1998.2,863.17z M1996.05,907.51
			l0.4,1.4c-2.75,1.06-5.05,3.39-5.67,6.33c-1.14,4.59,1.74,9.08,5.95,10.82c5.49,0.47,11.89,1,16.24-3.09
			c4.45-3.89,5.19-10.16,5.27-15.72h-0.98c-0.07-0.38-0.2-1.16-0.26-1.55C2010.03,906.53,2002.82,905.19,1996.05,907.51z"/>
	</g>
</g>
<g>
	<path class="st7" d="M1891.24,706.71c9.32,0.21,18.65,0.06,27.97,0.11c7.98,0.05,16.11-0.47,23.91,1.57
		c4.39,1.3,8.62,3.18,12.34,5.88c-0.55,0.26-1.65,0.77-2.2,1.02c-6.28-4.84-14.22-6.77-22.05-6.78
		c-12.87-0.01-25.74-0.03-38.62,0.04c0.05,35.76,0.03,71.52,0,107.28c6.46-0.11,12.93,0.21,19.4-0.13
		c0.47-12.16,0.12-24.34,0.19-36.49c2.2-2.55,6.01-2.39,9.1-2.41c2.38,0.21,5.47,0.17,6.83,2.54c3.6,5.82,7.25,11.63,10.33,17.75
		c0.81,1.39,0.6,3.03,0.74,4.57c-1.08-1.73-2.16-3.45-3.2-5.19c-3.44-5.93-6.78-11.92-10.36-17.77c-3.92,0.23-7.84,0.18-11.75,0.07
		c0.24,12.68-0.19,25.37,0.33,38.04l-0.29,0.54c-7.65-0.28-15.31,0.08-22.96-0.25c0.64-8.95,0.12-17.96,0.29-26.93
		C1891.24,762.35,1891.24,734.53,1891.24,706.71z"/>
</g>
<g>
	<path class="st8" d="M2149.67,717.64c7.05-0.5,14.34,0.12,21.49-0.28c0.02,7.24,0.23,14.49-0.13,21.73
		c7.02,0.23,14.04-0.02,21.06,0.15c-0.09,5.95,0.06,11.9-0.04,17.86c-6.95-0.04-13.9,0.04-20.84-0.03
		c0.04,11.38,0.01,22.77,0.04,34.15c-0.24,4.1,2.77,8.06,6.82,8.83c4.71,0.71,9.52,0.09,14.17-0.81
		c-0.01,5.95,0.12,11.91-0.11,17.85c-7.14,2.04-14.63,2.74-22.01,1.89c-5.77-0.94-11.34-3.8-14.88-8.53l1.5-0.05
		c-2.96-5.27-5.19-11.03-5.31-17.14c-0.16-10.69,0.15-21.38-0.03-32.06c-0.02-1.6-0.24-3.19-0.92-4.63
		c-0.71,11.55-0.12,23.15-0.64,34.72c-0.35-11.23-0.06-22.47-0.19-33.71l-0.65-0.73c-0.29-0.37-0.87-1.1-1.16-1.47
		c-2.46-0.29-4.94-0.29-7.4-0.34c-0.12-4.8-0.36-9.62,0.3-14.39c2.66,0.12,5.33,0.33,8,0.52c0.07-0.46,0.22-1.38,0.29-1.84
		c0.17-0.23,0.5-0.7,0.67-0.94C2149.56,731.47,2149.57,724.55,2149.67,717.64z"/>
	<g>
		<path class="st8" d="M2127.38,879.28c10.13-17.85,37.16-22.03,52.76-9.08c3.52,3.89,7.36,7.81,9.08,12.9
			c2,5.81,2.86,12.01,2.76,18.15c-0.19,1.29,0.15,2.84-0.69,3.97c-1.56,0.75-3.35,0.57-5.02,0.66c-12.7-0.07-25.4,0.02-38.1-0.09
			c-1.97-0.13-3.85,0.39-5.53,1.36c-0.28,0.14-0.85,0.42-1.13,0.55l-1.32,0.75c0.31,7.76,5.49,16.18,13.66,17.38
			c6.4,1.52,13.89,0.39,18.71-4.35c1.25-1.05,2.62-2.73,4.46-1.94c4.22,1.2,8.12,3.27,12.17,4.91c-0.55,1.27-0.94,2.67-1.9,3.71
			c-6.13,6.87-14.84,11.56-24.06,12.31c-10.15,1.4-20.59-1.63-28.99-7.34c-2.4-1.94-4.04-4.61-5.92-7.02
			c-5.49-7.02-6.08-16.33-6.7-24.87C2122.05,893.68,2123.49,885.87,2127.38,879.28z M2148.53,877.28
			c-5.49,3.26-9.76,10.25-8.07,16.65c5.13,1.19,10.52,0.29,15.77,0.57c5.59-0.3,11.32,0.68,16.82-0.57
			c2.24-3.41-0.02-7.91-1.04-11.46c-0.21-1.43-2.73-3.86-3.31-1.42c-1.41-1.4-2.99-2.65-4.78-3.5l1.65-0.21
			C2160.79,873.41,2153.6,874.4,2148.53,877.28z"/>
	</g>
</g>
<g>
	<path class="st9" d="M1914.13,725.2c8.12,0.08,16.47-0.7,24.39,1.51c2.98,1.3,6.94,3.12,7.1,6.86l-1.42-0.35
		c-7.11-8.66-19.34-5.49-29.07-5.95C1914.88,726.75,1914.38,725.71,1914.13,725.2z"/>
</g>
<g>
	<path class="st10" d="M1912.42,727.98l1.2,0.52c0.19,9.94,0.16,19.9,0.01,29.84c-0.38-0.25-1.13-0.75-1.5-1
		C1912.45,747.56,1912.04,737.76,1912.42,727.98z"/>
</g>
<g>
	<path class="st11" d="M1801.15,784.14c0.16,8.51-11.84,13.16-17.47,6.78c-7.22-6.17-14.62-12.16-21.27-18.95
		c-13.22-12.1-26.43-24.19-39.65-36.27c-1.26-0.84-1.7-1.99-0.79-3.32c18.98,17.37,37.94,34.77,57.04,52.01
		c3.03,2.65,5.79,5.83,9.53,7.5c4.68,1.43,10.32-1.7,10.97-6.7c0.99-3.82-1.44-7.2-4.08-9.65
		C1799.67,774.98,1801.58,780.68,1801.15,784.14z"/>
</g>
<g>
	<path class="st12" d="M2003.23,738.73c10.15-2.04,21.52-1.77,30.42,4.13c9.96,6.19,15.55,17.93,15.83,29.44
		c0.25,4.06,0.16,8.14-0.11,12.2c-17.19-0.5-34.43,0.34-51.61-0.39c1.25-1.07,2.86-1.34,4.46-1.3c14.89,0.01,29.81,0.17,44.69-0.06
		c0.2-0.2,0.6-0.59,0.8-0.79c0.93-10.17-0.39-21.18-6.69-29.56c-4.99-7.57-13.75-12.16-22.68-12.9c-8.18-0.32-16.94,0.19-23.97,4.85
		c-8.08,4.63-13.27,13.11-15.65,21.92c-2.37,10.66-1.63,22.03,2.32,32.23c2.4,5.43,7.12,9.24,10.68,13.84l-1.51,0.14
		c-7.65-5.06-12.05-13.86-13.73-22.67c-2.01-11.39-1.07-23.64,4.42-33.96C1985.53,747.34,1993.78,740.94,2003.23,738.73z"/>
</g>
<g>
	<path class="st13" d="M2084.58,745.47c4.68-5.12,11.65-7.84,18.57-7.37c8.43-0.57,17.46,2.54,22.57,9.53
		c5.55,7.21,6.57,16.7,6.28,25.51c0.07,14.69-0.29,29.4,0.12,44.08c-7.34,0.14-14.68-0.04-22.01,0.14
		c0.29-15.05,0.06-30.11,0.13-45.16c0.14-3.93-0.9-7.74-2.64-11.23c1.48,0.72,3.06,1.62,3.36,3.41c1.76,6.79,0.94,13.89,1.15,20.82
		c0.21,10.16-0.33,20.33,0.29,30.48c5.9,0.32,11.8-0.07,17.7,0.15c0.05-15.56-0.03-31.13,0.03-46.7c0.15-6.41-1.5-12.84-4.49-18.49
		c-2.38-3.47-5.65-6.38-9.3-8.45c-6.3-2.51-13.39-3.61-19.99-1.57c-3.9,0.63-6.67,3.62-10.01,5.42
		C2085.9,745.9,2085.02,745.62,2084.58,745.47z"/>
</g>
<g>
	<path class="st14" d="M2216.38,742.59c8.5-5.4,19.12-5.77,28.83-4.45c8.84,1.11,17.56,6.21,21.5,14.42
		c3.39,7.04,2.92,15.05,2.95,22.65c0.06,14.04-0.14,28.07,0.08,42.11c-6.93,0-13.86-0.16-20.79,0.08c0.1-2.56,0.15-5.13,0.39-7.67
		c1.88,1.38,1.31,3.87,1.56,5.88c5.63,0.41,11.27,0.22,16.91,0.22c0.37-15.54,0.09-31.08,0.16-46.62
		c0.23-6.82-1.05-13.99-5.13-19.61c-5.54-5.93-13.3-10.03-21.52-10.15c-9.04-0.24-19.08,0.34-26.25,6.55
		c-4.36,3.96-7.41,9.3-8.97,14.96c4.6,0.72,9.25,1.09,13.84,1.91c2.43-3.56,5.02-7.36,9.29-8.84c5.29-1.84,11.92-2.09,16.47,1.67
		c4.42,3.06,5.1,9.05,4.66,14c-1.34-1.22-1.65-2.96-1.92-4.64c-0.1-3.4-1.78-6.77-4.71-8.58c-4.45-2.46-9.97-2.35-14.6-0.45
		c-3.74,1.57-5.81,5.3-7.38,8.82c-6.13-1.26-12.58-1.01-18.61-2.59C2205.92,754.8,2209.57,747.17,2216.38,742.59z"/>
</g>
<g>
	<path class="st15" d="M2138.17,739.14c3.62,0.09,7.24-0.08,10.86,0.19c-0.07,0.46-0.22,1.38-0.29,1.84c-2.67-0.19-5.34-0.4-8-0.52
		c-0.66,4.77-0.42,9.59-0.3,14.39c2.46,0.05,4.94,0.05,7.4,0.34c0.29,0.37,0.87,1.1,1.16,1.47c-3.55,0.33-7.11,0.11-10.65,0.32
		C2138.17,751.16,2138.48,745.15,2138.17,739.14z"/>
</g>
<g>
	<path class="st16" d="M2000.75,757.62c1.71-4.69,7.24-5.61,11.56-6.36c3.76,0.06,7.84,0.64,11.02,2.82
		c1.06,0.89,3.17,2.3,1.29,3.81c-5.57-6.42-16.24-6.08-22.27-0.48L2000.75,757.62z"/>
</g>
<g>
	<path class="st17" d="M1914.8,759.09c8.56-0.25,18.01,1.6,25.74-3.07c-0.07,0.48-0.2,1.45-0.27,1.93
		c-7.61,4.28-16.75,2.19-25.06,2.44L1914.8,759.09z"/>
</g>
<g>
	<path class="st18" d="M2150.48,756.57c0.68,1.44,0.9,3.03,0.92,4.63c0.18,10.68-0.13,21.37,0.03,32.06
		c0.12,6.11,2.35,11.87,5.31,17.14l-1.5,0.05c-4.33-5.34-5.31-12.5-5.4-19.16C2150.36,779.72,2149.77,768.12,2150.48,756.57z"/>
</g>
<g>
	<path class="st19" d="M1998.06,769.87c9.96-0.02,19.94-0.28,29.89,0.11l0.48,0.89c-9.75,0.84-19.56,0.06-29.32,0.53
		C1998.85,771.02,1998.32,770.25,1998.06,769.87z"/>
</g>
<g>
	<path class="st20" d="M2204,781.73c5.2-7.81,15.37-9.87,24.1-10.63c5.06,0.13,10.11-0.26,15.17-0.16c1.5,0.2,3.54-0.24,4.46,1.37
		c-6.16,0.45-12.33-0.01-18.49,0.23c-5.5,0.22-10.81,1.89-15.85,3.99C2209.99,777.81,2207.69,781.09,2204,781.73z"/>
</g>
<g>
	<path class="st21" d="M2227.18,783.87c6.82-1.75,13.95-0.7,20.91-1.15c0.09,0.41,0.29,1.23,0.39,1.64
		c-6.13,0.36-12.34-0.42-18.4,0.66c-4.15,0.63-8.07,3.73-8.65,8.04c-1.09,4.86,3.09,9.53,7.8,10.09c4.54,0.42,9.48,0.41,13.38-2.3
		c5.1-2.95,6.39-9.33,6.55-14.76c0.48-0.21,1.42-0.62,1.89-0.83c-0.36,5.02-0.46,10.74-4.37,14.46c-2.66,3.6-7.23,4.63-11.37,5.45
		c-5.33,0.77-12.04-0.31-14.69-5.62C2218.41,793.87,2220.41,785.24,2227.18,783.87z"/>
</g>
<g>
	<path class="st22" d="M2203.76,782.27c1,3.41-1.61,6.43-1.55,9.81c-0.13,5.67-0.33,11.99,3.39,16.7c5.03,6.6,13.71,9.01,21.68,9.22
		c7.4,0.3,14.61-3.35,19.22-9.07l1.67,0.41c-4.93,8.43-15.53,11.58-24.8,10.23c-9.29-0.45-18.46-5.83-21.97-14.67
		C2199.63,797.48,2199.11,788.77,2203.76,782.27z"/>
</g>
<g>
	<path class="st23" d="M1964.31,800.65c3.39,5.57,7.48,10.75,10.3,16.66c-8.79-0.21-17.58,0-26.38-0.05
		c-2.94-5.03-6.09-9.93-8.77-15.11c6.13,1.67,5.61,10.38,10.9,12.98c6.87,0.65,13.83,0.13,20.73,0.03c-2.4-3.03-3.99-6.57-6.02-9.84
		C1964.02,803.96,1964.39,802.21,1964.31,800.65z"/>
</g>
<g>
	<path class="st24" d="M1657.43,836.27l-0.12-0.02c-0.39-0.39-0.78-0.79-1.18-1.18C1656.57,835.46,1657,835.87,1657.43,836.27z"/>
	<path class="st24" d="M1762.23,829.71c-1.26,1.42-2.61,2.78-3.95,4.12c-18.48,18.52-36.95,37.05-55.43,55.57
		c-0.82,0.82-1.63,1.64-2.48,2.44c19.31-19.82,39.21-39.09,58.53-58.92C1759.98,831.84,1761.11,830.79,1762.23,829.71z"/>
</g>
<g>
	<path class="st25" d="M1992.23,814.02c2-1.56,4.15,0.15,6.17,0.72c9.01,3.55,19.26,4.42,28.51,1.23c3.28-1.06,6.37-3.11,9.97-2.75
		c-4.44,3.52-10.11,5.21-15.66,5.96C2011.36,820.35,2000.94,819.02,1992.23,814.02z"/>
</g>
<path class="st2" d="M1657.43,836.27l-0.12-0.02c-0.39-0.39-0.78-0.79-1.18-1.18C1656.57,835.46,1657,835.87,1657.43,836.27z"/>
<path class="st2" d="M1762.23,829.71c-1.26,1.42-2.61,2.78-3.95,4.12c-18.48,18.52-36.95,37.05-55.43,55.57
	c-0.82,0.82-1.63,1.64-2.48,2.44c19.31-19.82,39.21-39.09,58.53-58.92C1759.98,831.84,1761.11,830.79,1762.23,829.71z"/>
<g>
	<path class="st26" d="M1891.34,832.99c22.69,0.31,45.39,0.16,68.08,0.07c0.18,6.73,0.03,13.47-0.23,20.2
		c-15.22,0.43-30.47,0.27-45.69,0.06c0.09,7.82-0.16,15.64,0.14,23.46c0.57-0.07,1.71-0.21,2.28-0.28
		c12.97,0.06,25.95-0.27,38.91,0.18c-0.03,6.51,0.36,13.04-0.26,19.54l-1.04-0.01c-13.24-0.08-26.47,0.04-39.71-0.06
		c0.3-0.45,0.91-1.34,1.21-1.78c9.37,1.05,18.83,0.17,28.25,0.48c3.13-0.21,6.67,0.7,9.49-1.07c0.76-5.09,0.12-10.26,0.16-15.38
		c-12.56-0.29-25.14,0.05-37.71-0.26c-1.23-0.08-3.18-0.15-2.99-1.91c-0.58-7.79-0.16-15.62-0.34-23.42
		c3.61-1.41,7.53-0.83,11.31-0.9c11.3-0.09,22.61,0.13,33.91-0.07c1.55-5.57,0.93-11.43,0.59-17.12
		c-21.7-0.46-43.42-0.06-65.13-0.25c0.02,34.8,0,69.6,0.03,104.4c18.23-0.04,36.46,0.04,54.7-0.01c3.94-0.04,7.92,0.32,11.82-0.48
		c0.21-5.66,0.77-11.4-0.3-16.99c-1.23-1.14-3.07-0.73-4.57-0.88c-11.34,0.09-22.67,0.02-34,0.12c-2.06-0.06-4.34,0.15-5.99-1.36
		c14.64-0.18,29.28-0.03,43.92-0.08c0.69,0.02,2.05,0.08,2.74,0.1c0.21,6.89,0.28,13.77-0.01,20.66c-4.55,0.6-9.14,0.18-13.7,0.3
		c-18.63,0.1-37.26-0.22-55.88,0.16C1891.19,904.61,1891.17,868.79,1891.34,832.99z"/>
</g>
<g>
	<path class="st1" d="M1762.41,771.97c-13.22-12.1-26.43-24.19-39.65-36.27c-1.26-0.84-1.7-1.99-0.79-3.32
		c-8.08-7.54-16.41-14.81-24.4-22.44c-1.81-1.46-3.7-3.8-6.3-3.16c-4.73,3.33-8.66,7.65-12.91,11.56
		c-23,21.33-45.87,42.8-69.02,63.98c-2.2,1.92-4.27,3.98-6.35,6.03c0.46,0.37,1.38,1.11,1.84,1.48c0.41,30.44,0.02,60.9,0.1,91.36
		c0.64,12.8,10.81,25.34,24.2,25.65c42.72,0.07,85.44-0.02,128.16,0.02c7.23,0.27,14.26-3.25,18.7-8.89
		c4.45-3.95,6.5-9.91,6.59-15.74c0-29.91-0.05-59.82,0.03-89.72c-0.04-0.76,0.32-1.29,1.07-1.59
		C1776.46,784.75,1769.06,778.76,1762.41,771.97z M1695.83,773.08c2.58-1.49,5.66-0.69,8.48-0.89c2.99,0.24,6.28-0.71,8.98,0.98
		c-0.18,5.37,0.11,10.75-0.14,16.13c-0.72,1.53-2.57,0.96-3.9,1.11c-4.03-0.15-8.07,0.04-12.09-0.11c-0.31-0.27-0.94-0.83-1.25-1.11
		C1695.67,783.82,1695.95,778.45,1695.83,773.08z M1712.99,814.9c-5.65,0.15-11.49,0.87-17.04-0.41c-0.09-5.75-0.08-11.5,0.12-17.25
		c5.69-0.35,11.43-0.44,17.12-0.01C1713.22,803.11,1713.48,809.02,1712.99,814.9z M1672.51,773.14c1.72-1.71,4.51-0.66,6.69-0.95
		c3.66,0.36,7.7-0.89,11.07,0.94c-0.07,5.36-0.03,10.73-0.01,16.09c-3.23,2.22-7.38,0.87-11.03,1.23c-2.21-0.26-5.07,0.69-6.71-1.24
		C1672.35,783.86,1672.38,778.49,1672.51,773.14z M1672.53,797.15c5.26-0.43,10.55-0.25,15.82-0.2l1.39,0.08l0.26,0.65
		c0.4,5.26,0.38,10.58,0.04,15.85c-0.05,0.34-0.14,1.03-0.19,1.37c-0.28,0.03-0.85,0.07-1.14,0.1c-5.32,0.29-10.68,0.33-15.98-0.21
		C1672.12,808.93,1672.45,803.03,1672.53,797.15z M1768.75,820.72c-1.23,3.62-3.81,6.38-6.52,8.99c-1.26,1.42-2.61,2.78-3.95,4.12
		c-18.48,18.52-36.95,37.05-55.43,55.57c-0.82,0.82-1.63,1.64-2.48,2.44c-0.92,0.93-1.83,1.86-2.73,2.79
		c-4.2,4.75-12.32,5.39-17.11,1.23c-5.2-3.22-9.61-9.08-13.55-13.02c-8.61-8.61-17.23-17.23-25.85-25.84
		c-0.61-0.61-1.23-1.23-1.84-1.87c-3.5-3.32-7.1-6.91-7.22-11.98c-0.62-6.55,4.54-12.5,10.78-13.85c1.12-0.06,2.25-0.07,3.37-0.04
		c3.95,0.63,7.06,3.06,9.85,5.76c0.02,0.01,0.04,0.03,0.06,0.05c0.44,0.39,0.87,0.8,1.3,1.2c0.56,0.54,1.1,1.07,1.64,1.61
		c1.22,1.2,2.43,2.41,3.65,3.61c0.89,0.88,1.77,1.75,2.66,2.63c0.97,0.96,1.95,1.92,2.92,2.88v0.01c0.8,0.79,1.61,1.59,2.41,2.38
		c4.52,4.47,9.05,8.95,13.57,13.41c1.18,1.12,2.37,2.23,3.57,3.34c2.44-2.46,4.89-4.92,7.34-7.38
		c12.03-12.11,24.06-24.21,36.09-36.32c0.02-0.01,0.03-0.02,0.03-0.03c2.74-2.75,5.48-5.51,8.22-8.26c0.29-0.3,0.59-0.59,0.88-0.89
		l0.01-0.01c1.3-1.31,2.66-2.64,4.08-3.89c2.73-2.91,5.75-5.49,9.93-5.75c2.1-0.32,4.12-0.02,5.97,0.74
		c3.21,1.02,6.03,3.31,7.38,6.39c0.42,0.96,0.69,1.96,0.84,2.98c0,0.01,0,0.01,0,0.01C1769.3,816.01,1769.4,818.43,1768.75,820.72z"
		/>
	<path class="st2" d="M1768.75,820.72c-1.23,3.62-3.81,6.38-6.52,8.99c-1.12,1.08-2.25,2.13-3.33,3.21
		c-19.32,19.83-39.22,39.1-58.53,58.92c-0.92,0.93-1.83,1.86-2.73,2.79c-4.2,4.75-12.32,5.39-17.11,1.23
		c-5.2-3.22-9.61-9.08-13.55-13.02c-8.61-8.61-17.23-17.23-25.85-25.84c-0.61-0.61-1.23-1.23-1.84-1.87
		c-3.5-3.32-7.1-6.91-7.22-11.98c-0.62-6.55,4.54-12.5,10.78-13.85c1.12-0.06,2.25-0.07,3.37-0.04c3.95,0.63,7.06,3.06,9.85,5.76
		c0.02,0.01,0.04,0.03,0.06,0.05c0.4,0.39,0.79,0.79,1.18,1.18l0.12,0.02c0.56,0.54,1.1,1.07,1.64,1.61
		c1.22,1.2,2.43,2.41,3.65,3.61c0.89,0.88,1.77,1.75,2.66,2.63c0.97,0.96,1.95,1.92,2.92,2.88v0.01c0.8,0.79,1.61,1.59,2.41,2.38
		c4.52,4.47,9.05,8.95,13.57,13.41c1.16,1.15,2.31,2.3,3.47,3.44c0.03-0.03,0.07-0.07,0.1-0.1c2.44-2.46,4.89-4.92,7.34-7.38
		c12.03-12.11,24.06-24.21,36.09-36.32c0.02-0.01,0.03-0.02,0.03-0.03c2.74-2.75,5.48-5.51,8.22-8.26c0.29-0.3,0.59-0.59,0.88-0.89
		l0.01-0.01c1.3-1.31,2.66-2.64,4.08-3.89c2.73-2.91,5.75-5.49,9.93-5.75c2.1-0.32,4.12-0.02,5.97,0.74
		c3.21,1.02,6.03,3.31,7.38,6.39c0.42,0.96,0.69,1.96,0.84,2.98c0,0.01,0,0.01,0,0.01C1769.3,816.01,1769.4,818.43,1768.75,820.72z"
		/>
</g>
<g>
	<path class="st27" d="M1982.22,868.94c6.07-5.82,14.74-8.2,23.01-7.8c6.44-0.26,13.08,0.34,18.92,3.29
		c6.71,3.24,11.81,9.58,13.5,16.85c1.03,4.56,1.13,9.26,1.25,13.91c0.02,15.02-0.11,30.05,0.07,45.08
		c-6.93,0.01-13.85-0.23-20.77,0.1c0.02-2.98,0.02-5.96,0-8.94c-4.22,6.19-11.17,10.88-18.83,10.9c-8.01,0.49-16.75-0.73-22.95-6.26
		c-6.66-5.62-8.31-15.28-6.46-23.45c1.12-7.15,6.73-13.05,13.49-15.3c10.75-4.3,22.51-3.09,33.81-2.96
		c-0.99,0.57-1.93,1.4-3.15,1.22c-11.97-0.06-24.67-0.07-35.36,6.08c-3.24,2.59-6.29,5.97-6.9,10.25c-1.4,7.05-1.32,15.29,3.82,20.9
		c6.41,7,16.61,8.96,25.71,7.85c5.54-0.83,10.27-4.32,13.99-8.34c0.9-1.11,2.17-1.76,3.54-2.11c1.1,2.59,1.17,5.4,0.78,8.16
		c5.05,1.25,10.33,0.6,15.47,0.54c1.49,0.21,1.77-1.62,1.77-2.69c0.23-14.34-0.08-28.69,0.17-43.04c-0.13-4.98,0.03-10.23-1.9-14.91
		c-2.52-3.96-4.8-8.56-9.21-10.73c-8.4-4.58-18.38-6.52-27.79-4.37c-10.95,1.86-20.58,10.37-22.96,21.35
		c4.79,0.89,9.64,1.65,14.53,1.33c2.27-4.42,6.09-8.57,11.41-8.72c4.8-0.03,10.52-0.83,14.36,2.75c2.56,1.99,2.89,5.41,3.46,8.38
		c0.33,1.97,0.77,4.53-1.24,5.79c-0.6-3.67,0.24-7.87-2.21-10.99c-3.38-5.38-10.96-5.86-16.42-3.89c-4.13,1.35-6.29,5.3-8.22,8.86
		c-6.2,0.05-12.35-1.57-18.56-1.94c0.16-0.37,0.46-1.13,0.61-1.51C1975.05,878.87,1977.65,873.12,1982.22,868.94z"/>
</g>
<g>
	<path class="st28" d="M2130.16,872.42c5.18-5.86,12.51-9.6,20.22-10.8c9.14-1.24,19.1-0.78,27.09,4.34
		c7.33,4.31,11.91,11.94,14.61,19.81c1.64,7.07,1.4,14.35,1.22,21.55c-0.75-0.02-2.26-0.06-3.01-0.09
		c-15.88-0.12-31.77,0.04-47.65-0.08c1.68-0.97,3.56-1.49,5.53-1.36c12.7,0.11,25.4,0.02,38.1,0.09c1.67-0.09,3.46,0.09,5.02-0.66
		c0.84-1.13,0.5-2.68,0.69-3.97c0.1-6.14-0.76-12.34-2.76-18.15c-1.72-5.09-5.56-9.01-9.08-12.9c-15.6-12.95-42.63-8.77-52.76,9.08
		c-3.89,6.59-5.33,14.4-5.76,21.96c0.62,8.54,1.21,17.85,6.7,24.87c1.88,2.41,3.52,5.08,5.92,7.02c8.4,5.71,18.84,8.74,28.99,7.34
		c9.22-0.75,17.93-5.44,24.06-12.31c0.96-1.04,1.35-2.44,1.9-3.71c-4.05-1.64-7.95-3.71-12.17-4.91c-1.84-0.79-3.21,0.89-4.46,1.94
		c-4.82,4.74-12.31,5.87-18.71,4.35c-8.17-1.2-13.35-9.62-13.66-17.38l1.32-0.75c0.82,3.08,1.37,6.28,2.94,9.11
		c5.98,11.19,24.51,10.4,30.14-0.75c5.92,2.79,11.96,5.32,17.95,7.96c-6.8,11.03-19.21,18.53-32.3,18.22
		c-9.32,0.53-18.92-1.79-26.5-7.35c-7.19-5.45-11.39-14.04-12.93-22.79c-1.57-10.85-0.95-22.38,4.16-32.28
		C2126.45,877.19,2128.23,874.74,2130.16,872.42z"/>
</g>
<g>
	<path class="st29" d="M2148.53,877.28c5.07-2.88,12.26-3.87,17.04,0.06l-1.65,0.21c-4.03-1.16-8.41-1.53-12.34,0.19
		c-6.15,2.48-9.71,8.92-10.45,15.28c10.39-0.08,20.79-0.08,31.18,0.01c0.24-4.3-1.03-8.54-3.61-11.98c0.58-2.44,3.1-0.01,3.31,1.42
		c1.02,3.55,3.28,8.05,1.04,11.46c-5.5,1.25-11.23,0.27-16.82,0.57c-5.25-0.28-10.64,0.62-15.77-0.57
		C2138.77,887.53,2143.04,880.54,2148.53,877.28z"/>
</g>
<g>
	<path class="st30" d="M1912.34,898.43c0.28-0.43,0.84-1.29,1.12-1.72c0,7.3,0.27,14.62-0.15,21.92c-1.57-1.78-1.13-4.27-1.21-6.44
		C1912.26,907.6,1911.97,903.01,1912.34,898.43z"/>
</g>
<g>
	<path class="st31" d="M2053.28,898.14c0.44-0.15,1.31-0.46,1.75-0.62c5.7,5.48,13.67,7.26,20.93,9.76
		c4.79,1.81,10.28,1.53,14.68,4.36c0.07,0.57,0.22,1.72,0.29,2.29c-3.25-2.02-6.96-3.06-10.66-3.83
		C2070.78,907.65,2060.24,905.65,2053.28,898.14z"/>
</g>
<g>
	<path class="st32" d="M1996.05,907.51c6.77-2.32,13.98-0.98,20.95-1.81c0.06,0.39,0.19,1.17,0.26,1.55
		c-6.94,0.3-14.1-0.58-20.81,1.66L1996.05,907.51z"/>
</g>
<g>
	<path class="st33" d="M1566.28,908.86c3.18,2.35,4.73,6.13,7.3,9.03c4.06,4.57,7.51,9.67,11.97,13.89
		c6.94,6.76,13.4,14.13,21.4,19.7c1.79,1.31,3.78,2.57,4.7,4.7l-1.39,0.38c-16.97-13.17-32.3-28.58-44.63-46.21L1566.28,908.86z"/>
</g>
<g>
	<path class="st34" d="M2091.45,914.24c4.34,0.53,3.7,6.42,2.08,9.22c-5.49,6.72-16.55,6.84-23.16,1.72
		c-2.66-1.73-3.17-5.06-4.63-7.63c-5.44-0.11-10.67,2.03-15.97,3.05c-0.15,1.04-0.27,2.09-0.4,3.14c-0.81-0.76-1.59-1.54-2.35-2.33
		c-0.17-0.48-0.53-1.44-0.7-1.92c6.87-1.39,13.67-3.1,20.55-4.49c0.69,3.08,1.81,6.21,4.16,8.44c4.61,4.34,11.94,4.26,17.52,2.04
		C2093.01,923.79,2094.59,917.88,2091.45,914.24z"/>
</g>
<g>
	<path class="st35" d="M2054.25,933.53c3.53-0.78,5.82,2.58,8.87,3.67c9.58,3.78,20.69,5.27,30.46,1.26
		c1.82-0.61,3.82-2.03,5.57-0.37c-5.49,2.82-11.69,4.33-17.88,4.14C2071.69,942.49,2061.51,940.11,2054.25,933.53z"/>
</g>
<rect x="259.84" y="470.87" class="st36" width="18.52" height="18.52"/>
<rect x="283.66" y="470.87" class="st36" width="18.52" height="18.52"/>
<rect x="259.84" y="495.19" class="st36" width="18.52" height="18.52"/>
<rect x="283.66" y="495.19" class="st36" width="18.52" height="18.52"/>
</svg>
